<?xml version="1.0" encoding="UTF-8"?>
<svg width="128px" height="128px" viewBox="0 0 128 128" version="1.1" xmlns="http://www.w3.org/2000/svg" xmlns:xlink="http://www.w3.org/1999/xlink">
    <title>Group 8</title>
    <defs>
        <linearGradient x1="50%" y1="0%" x2="50%" y2="100%" id="linearGradient-1">
            <stop stop-color="#757FF4" offset="0%"></stop>
            <stop stop-color="#545ACD" offset="100%"></stop>
        </linearGradient>
        <path d="M89.7822569,26.6519201 C90.7990004,27.2150654 91.3908012,28.356282 91.5576594,30.0755697 C95.3810311,30.2848126 99.1129576,31.0335073 102.667322,32.2915553 C103.386201,32.5459985 103.890567,33.183285 103.984251,33.9258874 L104,34.1769415 L104,94.3436081 C104,95.7234201 102.635776,96.6887456 101.334574,96.2296645 C97.4804027,94.869862 93.4225526,94.1773222 89.3305718,94.1818284 C80.7604639,94.1699952 72.4794311,97.2273622 65.9794815,102.783982 L65.2358783,103.431707 L65.0909064,103.535724 L64.8940156,103.648821 L64.7925378,103.695988 L64.6761333,103.741818 L64.427212,103.813434 L64.2427092,103.844586 L64.0096694,103.859162 L63.7667577,103.845708 L63.6488338,103.828436 L63.5229523,103.801844 L63.3635921,103.755781 L63.2019395,103.69363 L63.0214997,103.603859 L62.8376355,103.486901 L62.6661093,103.349377 C56.1106586,97.4815898 47.6466034,94.1818303 38.6644612,94.1818291 C34.5774474,94.1773222 30.5195973,94.869862 26.6654256,96.2296645 C25.4407652,96.6617409 24.1602789,95.8320591 24.013871,94.5825962 L24,94.3436081 L24,34.1769415 C24,33.3296307 24.5339238,32.5742699 25.3326778,32.2915553 C29.230415,30.9119724 33.3416813,30.1449087 37.5506442,30.0298577 C37.7265362,28.3560202 38.3156444,27.241354 39.3166042,26.6869508 C41.4563806,25.5017895 56.3451914,28.5596237 57.1576756,30.4234521 C57.5733256,31.3769481 57.5105403,32.7151505 56.9693196,34.4380596 C59.4559469,35.7190643 61.8147949,37.2649695 64.0018376,39.0593971 C66.4693491,37.0338878 69.1558641,35.3251089 71.9980362,33.9571046 C71.5809801,32.4478585 71.5620676,31.2581132 71.9411856,30.3884214 C72.7536698,28.524593 87.6424805,25.4667588 89.7822569,26.6519201 Z M38.6666667,34.0150935 C35.2132944,34.0150935 31.8306526,34.4995533 28.5923756,35.4420627 L28,35.6231253 L28,91.6231253 L28.3335256,91.5302639 C31.3638173,90.7222566 34.4808992,90.2733114 37.6196888,90.1944103 L38.6666667,90.1818303 C47.1795793,90.1818303 55.2824729,92.8546069 62.0014532,97.6903808 L62.0006968,42.6003831 C55.503742,37.0544909 47.2307426,34.0033375 38.6666667,34.0150935 Z M89.3304945,34.0150871 C80.7699367,34.0029721 72.4977648,37.0535197 66.0013265,42.5986052 L65.9998738,97.68713 C72.7674828,92.8172667 80.925914,90.1702207 89.3311279,90.1818316 C92.8248355,90.1779789 96.2993662,90.6324781 99.6664473,91.5302639 L100,91.6231253 L100,35.6231253 L99.4076099,35.4420621 C96.4930998,34.5938028 93.4613899,34.1165911 90.3649621,34.0296302 L89.3304945,34.0150871 Z M82.7385196,68.0261061 C84.811292,68.0261061 86.491606,69.7064201 86.491606,71.7791925 C86.491606,73.8519649 84.811292,75.5322789 82.7385196,75.5322789 C80.6657472,75.5322789 78.9854331,73.8519649 78.9854331,71.7791925 C78.9854331,69.7064201 80.6657472,68.0261061 82.7385196,68.0261061 Z M47.7626232,52.4940197 C48.3149079,52.4940197 48.7626232,52.9417349 48.7626232,53.4940197 L48.7626232,59.0001925 C48.7626232,59.5524773 49.2103384,60.0001925 49.7626232,60.0001925 L55.268796,60.0001925 C55.8210807,60.0001925 56.268796,60.4479078 56.268796,61.0001925 L56.268796,66.5063654 C56.268796,67.0586501 55.8210807,67.5063654 55.268796,67.5063654 L49.7626232,67.5063654 C49.2103384,67.5063654 48.7626232,67.9540806 48.7626232,68.5063654 L48.7626232,74.0125382 C48.7626232,74.564823 48.3149079,75.0125382 47.7626232,75.0125382 L42.2564503,75.0125382 C41.7041656,75.0125382 41.2564503,74.564823 41.2564503,74.0125382 L41.2564503,68.5063654 C41.2564503,67.9540806 40.8087351,67.5063654 40.2564503,67.5063654 L34.7502775,67.5063654 C34.1979927,67.5063654 33.7502775,67.0586501 33.7502775,66.5063654 L33.7502775,61.0001925 C33.7502775,60.4479078 34.1979927,60.0001925 34.7502775,60.0001925 L40.2564503,60.0001925 C40.8087351,60.0001925 41.2564503,59.5524773 41.2564503,59.0001925 L41.2564503,53.4940197 C41.2564503,52.9417349 41.7041656,52.4940197 42.2564503,52.4940197 L47.7626232,52.4940197 Z M75.2323467,60.5199332 C77.3051191,60.5199332 78.9854331,62.2002473 78.9854331,64.2730197 C78.9854331,66.3457921 77.3051191,68.0261061 75.2323467,68.0261061 C73.1595743,68.0261061 71.4792603,66.3457921 71.4792603,64.2730197 C71.4792603,62.2002473 73.1595743,60.5199332 75.2323467,60.5199332 Z M90.2446924,60.5199332 C92.3174648,60.5199332 93.9977788,62.2002473 93.9977788,64.2730197 C93.9977788,66.3457921 92.3174648,68.0261061 90.2446924,68.0261061 C88.17192,68.0261061 86.491606,66.3457921 86.491606,64.2730197 C86.491606,62.2002473 88.17192,60.5199332 90.2446924,60.5199332 Z M82.7385196,53.0137604 C84.811292,53.0137604 86.491606,54.6940744 86.491606,56.7668468 C86.491606,58.8396192 84.811292,60.5199332 82.7385196,60.5199332 C80.6657472,60.5199332 78.9854331,58.8396192 78.9854331,56.7668468 C78.9854331,54.6940744 80.6657472,53.0137604 82.7385196,53.0137604 Z" id="path-2"></path>
        <filter x="-10.0%" y="-9.0%" width="120.0%" height="120.3%" filterUnits="objectBoundingBox" id="filter-3">
            <feMorphology radius="0.5" operator="dilate" in="SourceAlpha" result="shadowSpreadOuter1"></feMorphology>
            <feOffset dx="0" dy="1" in="shadowSpreadOuter1" result="shadowOffsetOuter1"></feOffset>
            <feGaussianBlur stdDeviation="2" in="shadowOffsetOuter1" result="shadowBlurOuter1"></feGaussianBlur>
            <feColorMatrix values="0 0 0 0 0   0 0 0 0 0   0 0 0 0 0  0 0 0 0.334189248 0" type="matrix" in="shadowBlurOuter1"></feColorMatrix>
        </filter>
        <filter x="-7.0%" y="-5.9%" width="114.1%" height="114.2%" filterUnits="objectBoundingBox" id="filter-4">
            <feMorphology radius="0.25" operator="erode" in="SourceAlpha" result="shadowSpreadInner1"></feMorphology>
            <feGaussianBlur stdDeviation="0.5" in="shadowSpreadInner1" result="shadowBlurInner1"></feGaussianBlur>
            <feOffset dx="0" dy="0" in="shadowBlurInner1" result="shadowOffsetInner1"></feOffset>
            <feComposite in="shadowOffsetInner1" in2="SourceAlpha" operator="arithmetic" k2="-1" k3="1" result="shadowInnerInner1"></feComposite>
            <feColorMatrix values="0 0 0 0 0.143342391   0 0 0 0 0.143342391   0 0 0 0 0.143342391  0 0 0 0.25076486 0" type="matrix" in="shadowInnerInner1"></feColorMatrix>
        </filter>
    </defs>
    <g id="Page-1" stroke="none" stroke-width="1" fill="none" fill-rule="evenodd">
        <g id="Group-8">
            <circle id="Oval" fill="url(#linearGradient-1)" cx="64" cy="64" r="64"></circle>
            <g id="Combined-Shape" fill-rule="nonzero">
                <use fill="black" fill-opacity="1" filter="url(#filter-3)" xlink:href="#path-2"></use>
                <use fill="#FFFFFF" xlink:href="#path-2"></use>
                <use fill="black" fill-opacity="1" filter="url(#filter-4)" xlink:href="#path-2"></use>
            </g>
        </g>
    </g>
</svg>