<?xml version="1.0" encoding="UTF-8"?>
<svg width="640px" height="620px" viewBox="0 0 640 620" version="1.1" xmlns="http://www.w3.org/2000/svg" xmlns:xlink="http://www.w3.org/1999/xlink">
    <title>Combined Shape</title>
    <g id="Page-1" stroke="none" stroke-width="1" fill="none" fill-rule="evenodd">
        <path d="M526.258055,2.21536106 C534.391961,6.72049996 539.12636,15.8501604 540.461255,29.6043422 C571.047339,31.2783185 600.903228,37.2679046 629.338578,47.3324421 C635.089607,49.3679876 639.124536,54.4662798 639.874011,60.4070993 L640,62.4155317 L640,543.748865 C640,554.787361 629.086209,562.509965 618.676596,558.837316 C587.843222,547.958896 555.380421,542.418578 522.644575,542.454628 C454.083711,542.359961 387.835449,566.818897 335.835852,611.271858 L329.887026,616.453658 L328.727251,617.285788 L327.152125,618.190564 L326.340303,618.567907 L325.409066,618.93454 L323.417696,619.507475 L321.941674,619.756686 L320.077355,619.873295 L318.134062,619.765666 L317.19067,619.627486 L316.183619,619.414751 L314.908736,619.046249 L313.615516,618.549042 L312.171998,617.830872 L310.701084,616.895206 L309.328875,615.795016 C256.885269,568.852718 189.172827,542.454643 117.31569,542.454633 C84.6195789,542.418578 52.156778,547.958896 21.3234044,558.837316 C11.5261216,562.293927 1.28223091,555.656473 0.110967921,545.660769 L0,543.748865 L0,62.4155317 C0,55.6370452 4.27139012,49.5941593 10.6614225,47.3324421 C41.8402241,36.2968748 74.7269192,30.160488 108.395125,29.2391362 C109.814272,15.8444109 114.526839,6.92989953 122.532834,2.49560658 C139.651045,-6.98568433 258.761531,17.4769896 265.261405,32.3876168 C268.586904,40.0162712 268.084232,50.7231321 263.753387,64.5081994 C283.64723,74.7522881 302.518199,87.1196245 320.0147,101.475177 C339.754471,85.2713665 361.246212,71.6013171 383.983177,60.6573723 C380.647825,48.5818503 380.496703,39.0645336 383.529485,32.1073713 C390.029358,17.1967441 509.139844,-7.26592985 526.258055,2.21536106 Z M117.333333,61.1207481 C89.7063549,61.1207481 62.6452205,64.9964263 36.7390044,72.5365016 L32,73.9850023 L32,521.985002 L34.6682049,521.242111 C58.9105385,514.778053 83.8471936,511.186491 108.95751,510.555282 L117.333333,510.454643 C185.436634,510.454643 250.259784,531.836855 304.011625,570.523047 L304.005574,129.803065 C252.029936,85.4359269 185.845941,61.0267003 117.333333,61.1207481 Z M522.643956,61.1206968 C454.159494,61.0237768 387.982118,85.4281579 336.010612,129.788841 L335.998991,570.49704 C390.139862,531.538134 455.407312,510.361766 522.649023,510.454653 C550.598684,510.423831 578.394929,514.059825 605.331578,521.242111 L608,521.985002 L608,73.9850023 L603.260879,72.5364969 C579.944798,65.750422 555.691119,61.9327291 530.919696,61.2370415 L522.643956,61.1206968 Z M469.908156,333.208849 C486.490336,333.208849 499.932848,346.651361 499.932848,363.23354 C499.932848,379.815719 486.490336,393.258231 469.908156,393.258231 C453.325977,393.258231 439.883465,379.815719 439.883465,363.23354 C439.883465,346.651361 453.325977,333.208849 469.908156,333.208849 Z M188.100985,208.952157 C193.623833,208.952157 198.100985,213.42931 198.100985,218.952157 L198.100985,259.00154 C198.100985,264.524388 202.578138,269.00154 208.100985,269.00154 L248.150368,269.00154 C253.673215,269.00154 258.150368,273.478693 258.150368,279.00154 L258.150368,319.050923 C258.150368,324.57377 253.673215,329.050923 248.150368,329.050923 L208.100985,329.050923 C202.578138,329.050923 198.100985,333.528075 198.100985,339.050923 L198.100985,379.100306 C198.100985,384.623153 193.623833,389.100306 188.100985,389.100306 L148.051602,389.100306 C142.528755,389.100306 138.051602,384.623153 138.051602,379.100306 L138.051602,339.050923 C138.051602,333.528075 133.57445,329.050923 128.051602,329.050923 L88.0022198,329.050923 C82.4793723,329.050923 78.0022198,324.57377 78.0022198,319.050923 L78.0022198,279.00154 C78.0022198,273.478693 82.4793723,269.00154 88.0022198,269.00154 L128.051602,269.00154 C133.57445,269.00154 138.051602,264.524388 138.051602,259.00154 L138.051602,218.952157 C138.051602,213.42931 142.528755,208.952157 148.051602,208.952157 L188.100985,208.952157 Z M409.858774,273.159466 C426.440953,273.159466 439.883465,286.601978 439.883465,303.184157 C439.883465,319.766336 426.440953,333.208849 409.858774,333.208849 C393.276595,333.208849 379.834082,319.766336 379.834082,303.184157 C379.834082,286.601978 393.276595,273.159466 409.858774,273.159466 Z M529.957539,273.159466 C546.539718,273.159466 559.982231,286.601978 559.982231,303.184157 C559.982231,319.766336 546.539718,333.208849 529.957539,333.208849 C513.37536,333.208849 499.932848,319.766336 499.932848,303.184157 C499.932848,286.601978 513.37536,273.159466 529.957539,273.159466 Z M469.908156,213.110083 C486.490336,213.110083 499.932848,226.552595 499.932848,243.134775 C499.932848,259.716954 486.490336,273.159466 469.908156,273.159466 C453.325977,273.159466 439.883465,259.716954 439.883465,243.134775 C439.883465,226.552595 453.325977,213.110083 469.908156,213.110083 Z" id="Combined-Shape" fill="#656DE2" fill-rule="nonzero"></path>
    </g>
</svg>